<mxfile host="app.diagrams.net" modified="2023-12-05T11:00:39.618Z" agent="Mozilla/5.0 (Windows NT 10.0; Win64; x64) AppleWebKit/537.36 (KHTML, like Gecko) Chrome/119.0.0.0 Safari/537.36 Edg/119.0.0.0" etag="WaeGq43eSDg1TPrpwR1s" version="22.1.5" type="github">
  <diagram name="Page-1" id="jzzMi-_hFztrNZO7foin">
    <mxGraphModel dx="1113" dy="594" grid="1" gridSize="10" guides="1" tooltips="1" connect="1" arrows="1" fold="1" page="1" pageScale="1" pageWidth="827" pageHeight="1169" math="0" shadow="0">
      <root>
        <mxCell id="0" />
        <mxCell id="1" parent="0" />
        <mxCell id="HGXBxJdZRkkymD8tyZTc-8" value="&amp;nbsp; Applications métier" style="rounded=0;whiteSpace=wrap;html=1;align=left;horizontal=1;verticalAlign=top;" vertex="1" parent="1">
          <mxGeometry x="40" y="40" width="480" height="390" as="geometry" />
        </mxCell>
        <mxCell id="HGXBxJdZRkkymD8tyZTc-9" value="&amp;nbsp; Applications exposées" style="rounded=0;whiteSpace=wrap;html=1;align=left;horizontal=1;verticalAlign=top;" vertex="1" parent="1">
          <mxGeometry x="550" y="40" width="320" height="390" as="geometry" />
        </mxCell>
        <mxCell id="HGXBxJdZRkkymD8tyZTc-10" value="" style="rounded=0;whiteSpace=wrap;html=1;dashed=1;" vertex="1" parent="1">
          <mxGeometry x="60" y="70" width="170" height="100" as="geometry" />
        </mxCell>
        <mxCell id="HGXBxJdZRkkymD8tyZTc-11" value="" style="rounded=0;whiteSpace=wrap;html=1;dashed=1;" vertex="1" parent="1">
          <mxGeometry x="280" y="70" width="170" height="100" as="geometry" />
        </mxCell>
      </root>
    </mxGraphModel>
  </diagram>
</mxfile>
